<?xml version="1.0" encoding="utf-8"?>
<!-- Generator: Adobe Illustrator 25.4.1, SVG Export Plug-In . SVG Version: 6.00 Build 0)  -->
<svg version="1.1" id="Ebene_1" xmlns="http://www.w3.org/2000/svg" xmlns:xlink="http://www.w3.org/1999/xlink" x="0px" y="0px"
	 viewBox="0 0 40 38.2" style="enable-background:new 0 0 40 38.2;" xml:space="preserve">
<style type="text/css">
	.st0{fill-rule:evenodd;clip-rule:evenodd;fill:#FFFFFF;}
</style>
<path class="st0" d="M19.9,0C9,0,0,8.5,0,19.1c0,10.5,9,19.1,19.9,19.1c11,0,20.1-8.5,20.1-19.1C40,8.5,31,0,19.9,0z M13.2,30.2
	c-0.6,0-1.1-0.5-1.1-1.1c0-0.5,0.5-1.1,1.1-1.1c0.6,0,1.1,0.6,1.1,1.1C14.3,29.7,13.9,30.2,13.2,30.2z M27.2,30.2
	c-0.6,0-1.1-0.5-1.1-1.1c0-0.5,0.5-1.1,1.1-1.1c0.6,0,1.1,0.6,1.1,1.1C28.2,29.7,27.8,30.2,27.2,30.2z M32.8,23.8
	c-4.2,0.2-5.2,0.5-9.6,3.4c1.5-2.4,5.2-5.1,8-5.7c0.8-0.3,0.7-1.5-0.2-1.1c-7.2,1.8-11.1,5.5-10.3,15.7h-1.1
	c0.5-9.3-1.6-12.2-10.3-15.7c-0.8-0.3-1.5,0.8-0.7,1.1c2.4,0.8,6.7,3.1,8.2,5.5c-4.2-2.9-5.5-3.1-9.8-3.3c-1,0-1.8,0.2-3.1,0.3V11.9
	c1.6,1.1,5.4,2.8,7.3,4.2c4.4-3.9,13-3.8,17.1,0.3l7.7-4.6v12.2C34.8,24,33.8,23.8,32.8,23.8z"/>
</svg>
